<?xml version="1.0" encoding="utf-8"?>
<!-- Generator: Adobe Illustrator 24.1.0, SVG Export Plug-In . SVG Version: 6.00 Build 0)  -->
<svg version="1.1" id="Calque_1" xmlns="http://www.w3.org/2000/svg" xmlns:xlink="http://www.w3.org/1999/xlink" x="0px" y="0px"
	 viewBox="0 0 115 123" style="enable-background:new 0 0 115 123;" xml:space="preserve">
<style type="text/css">
	.st0{fill:#65B902;}
	.st1{fill:#509303;}
	.st2{fill:#549C00;}
</style>
<g>
	<path class="st0" d="M49.3,68.6c-1.3-2.6-2.1-5.3-2.2-8.2c-0.1-3,0.9-5.8,2.6-8.2c1.5-2,3.3-3.6,5.4-5c2.6-1.8,5.4-3.1,8.4-4.2
		c5.5-2.1,11.2-3.3,17-4.1c0.2,0,0.4,0,0.7,0.1c-0.1,0.3-0.1,0.5-0.3,0.8c-1.8,3.4-3,7.1-4.1,10.8c-0.9,2.9-1.8,5.8-2.8,8.7
		c-0.8,2.3-1.8,4.4-3.1,6.5c-1,1.6-2.2,3-3.7,4.2c-2.1,1.6-4.5,2.5-7.2,2.6c-3.3,0.1-6.3-0.8-9.3-2.1c0-0.8,0.6-1.3,1-1.9
		c1.5-2.9,3.5-5.5,5.6-8c1.8-2.1,3.6-4.2,5.7-6.1c1.2-1.1,2.3-2.2,3.4-3.4c0.2-0.2,0.4-0.5,0.1-0.9c-0.2,0.1-0.4,0.1-0.5,0.2
		c-1.7,1.6-3.5,3.1-5.2,4.7c-1.8,1.8-3.6,3.5-5.2,5.5c-1.5,1.7-2.9,3.4-4.2,5.3C50.7,66.7,50,67.6,49.3,68.6z M70.4,46.7
		c0.1,0.3,0.3,0.3,0.4,0c0.1,0,0.3,0,0.4-0.1c0.1-0.1,0.2-0.3,0.2-0.4c-0.2,0-0.4-0.1-0.5,0C70.7,46.2,70.6,46.5,70.4,46.7z
		 M69.1,48.2c-0.8-0.1-1.2,0.2-1.3,0.8c0,0.1,0,0.1,0.1,0.2c0.1,0.1,0.3,0.1,0.3,0.1C68.6,49.1,69,48.8,69.1,48.2z M72.5,45.3
		c0,0,0-0.1,0-0.1c0,0-0.1,0-0.1,0c0,0.1,0,0.1,0,0.2C72.4,45.4,72.5,45.3,72.5,45.3z"/>
	<path class="st1" d="M49.3,68.6c0.7-1,1.4-1.9,2.1-2.9c1.2-1.9,2.7-3.6,4.2-5.3c1.6-1.9,3.4-3.7,5.2-5.5c1.7-1.6,3.4-3.1,5.2-4.7
		c0.1-0.1,0.4-0.1,0.5-0.2c0.4,0.4,0.2,0.6-0.1,0.9c-1.1,1.1-2.2,2.3-3.4,3.4c-2.1,1.9-3.9,4-5.7,6.1c-2.1,2.5-4.1,5.1-5.6,8
		c-0.3,0.6-1,1.1-1,1.9c-1,1.3-1.4,2.9-2,4.5c-0.2,0.7-0.4,1.4-0.6,2.1c-0.6,0.3-1.2,0.1-1.8-0.2c0-0.2-0.1-0.4-0.1-0.5
		c0.4-2,1.2-3.9,2.2-5.7C48.8,69.8,49,69.2,49.3,68.6z"/>
	<path class="st1" d="M69.1,48.2c0,0.6-0.5,0.9-0.9,1.1c-0.1,0-0.2-0.1-0.3-0.1c0,0-0.1-0.1-0.1-0.2C67.9,48.4,68.3,48.1,69.1,48.2z
		"/>
	<path class="st2" d="M70.4,46.7c0.2-0.2,0.3-0.4,0.5-0.6c0.1-0.1,0.3,0,0.5,0c-0.1,0.2-0.1,0.3-0.2,0.4c-0.1,0.1-0.2,0.1-0.4,0.1
		C70.7,46.7,70.5,46.7,70.4,46.7z"/>
	<path class="st2" d="M72.5,45.3c0,0-0.1,0-0.1,0.1c0-0.1,0-0.1,0-0.2c0.1,0,0.1,0,0.1,0C72.5,45.2,72.5,45.3,72.5,45.3z"/>
	<path class="st1" d="M70.4,46.7c0.1,0,0.3,0,0.4,0C70.7,47,70.5,47,70.4,46.7z"/>
</g>
</svg>
