<?xml version="1.0" encoding="utf-8"?>
<!-- Generator: Adobe Illustrator 24.1.0, SVG Export Plug-In . SVG Version: 6.00 Build 0)  -->
<svg version="1.1" id="Calque_1" xmlns="http://www.w3.org/2000/svg" xmlns:xlink="http://www.w3.org/1999/xlink" x="0px" y="0px"
	 viewBox="0 0 1920 1080" style="enable-background:new 0 0 1920 1080;" xml:space="preserve">
<style type="text/css">
	.st0{fill:#699B39;}
	.st1{fill:#6C9C38;}
	.st2{fill:#74A137;}
	.st3{fill:#7FA736;}
	.st4{fill:#80A736;}
	.st5{fill:#75A137;}
	.st6{fill:#719F39;}
	.st7{fill:#709E39;}
	.st8{fill:#95B435;}
	.st9{fill:#59933D;}
	.st10{fill:#84AA38;}
	.st11{fill:#89AD36;}
	.st12{fill:#7BA438;}
	.st13{fill:#86AB36;}
	.st14{fill:#63983A;}
	.st15{fill:#7EA639;}
	.st16{fill:#88AD3B;}
</style>
<path class="st0" d="M880.62,358.82c13.81-7.9,27.65-15.78,38.57-27.67c4.45-4.85,8.5-10.07,13.56-16.11
	c0.75,3.1,1.71,5.33,1.77,7.59c0.88,30.29-3.75,59.61-15.78,87.58c-0.19,0.43-0.57,0.79-0.86,1.18c-1.26-3.19-2.38-6.45-3.8-9.57
	c-4.08-8.99-8.27-17.94-12.42-26.9c0.28-0.55,0.55-1.1,0.83-1.65c-0.76-0.07-1.64-0.43-2.26-0.17c-2.5,1.06-4.93,2.3-7.38,3.48
	c-1.41-2.7-2.56-5.59-4.3-8.05C886.14,365.13,883.28,362.05,880.62,358.82z M904.43,373c-0.02-0.22-0.05-0.44-0.07-0.66
	c-0.51,0.09-1.01,0.18-1.52,0.29c-0.03,0.01,0,0.35,0,0.35C903.37,373,903.9,373,904.43,373z"/>
<path class="st1" d="M691.67,420.25c-8.02-10.86-11.11-23.73-14.79-36.35c-0.55-1.88-0.73-3.88-1.08-5.82
	c1.44-1.55,3.11-2.95,4.27-4.68c4.96-7.37,9.75-14.84,14.65-22.25c1.6-2.42,3.35-4.75,5.03-7.13c8.32,5.05,16.65,10.1,24.97,15.15
	c-4.43,5.7-8.85,11.39-13.28,17.09c-2.41-0.95-4.82-1.9-7.23-2.84c-0.67-0.3-1.33-0.59-1.99-0.89c-1-0.09-2-0.18-3-0.27
	c-0.03,0.22-0.06,0.45-0.09,0.67c0.78,0.16,1.56,0.32,2.33,0.48c0.64,0.37,1.29,0.73,1.93,1.1c1.49,1.08,2.98,2.16,4.47,3.24
	c-0.69,1.61-1.38,3.22-2.07,4.83c-3.35,7.85-6.88,15.62-9.97,23.57C694.07,410.7,693.03,415.54,691.67,420.25z"/>
<path class="st2" d="M901.66,374.92c4.15,8.96,8.34,17.9,12.42,26.9c1.42,3.12,2.54,6.38,3.8,9.57c-2.84,4.84-5.08,10.18-8.65,14.4
	c-5.22,6.17-11.4,11.54-17.16,17.24c0.15-13.41-2.01-26.37-7.37-38.75c-1.89-4.37-3.37-8.92-5.04-13.38
	C886.99,385.57,894.32,380.25,901.66,374.92z"/>
<path class="st3" d="M879.65,390.9c1.67,4.47,3.15,9.01,5.04,13.38c5.35,12.39,7.52,25.34,7.37,38.75
	c-9.71,7.06-19.43,14.12-29.14,21.18c-0.24-1.33-1.07-2.91-0.63-3.95c4.48-10.69,5.72-21.79,3.23-32.99
	c-1.03-4.63-0.52-10.49-6.07-13.25C866.19,406.32,872.92,398.61,879.65,390.9z"/>
<path class="st4" d="M745.58,466.2c-9.66-6.57-19.31-13.14-28.97-19.72c-0.56-18.46,3.32-35.89,12.08-52.2
	c5.71,6.87,11.42,13.74,17.13,20.61c-5.51,15.82-5.96,31.58,0.34,47.34C746.59,463.3,745.8,464.86,745.58,466.2z"/>
<path class="st5" d="M728.69,394.28c-8.75,16.31-12.64,33.74-12.08,52.2c-8.31-8.74-16.63-17.49-24.94-26.23
	c1.36-4.71,2.4-9.55,4.17-14.11c3.08-7.95,6.62-15.72,9.97-23.57c0.69-1.61,1.38-3.22,2.07-4.83
	C714.81,383.25,721.75,388.77,728.69,394.28z"/>
<path class="st6" d="M714.55,475.21c-15.73-5.44-27.43-16.17-37.63-28.82c-1.96-2.43-3.63-5.09-5.44-7.65
	c0.42-2.73,0.83-5.46,1.25-8.18c1.06-6.92,2.11-13.85,3.17-20.77c4.49,5.3,9,10.57,13.46,15.89c7.12,8.5,14.21,17.02,21.31,25.53
	c0.52,3.31,1.04,6.62,1.57,9.93C713.01,465.84,713.79,470.52,714.55,475.21z"/>
<path class="st7" d="M901.41,443.95c9.35-11.76,18.68-23.54,28.07-35.27c1.12-1.39,2.6-2.49,3.91-3.72
	c0.74,0.81,1.99,1.54,2.14,2.45c0.88,5.14,1.38,10.35,2.24,15.49c0.42,2.49,1.33,4.9,2.02,7.34c-10.9,15.69-22.29,30.9-39.76,40.07
	c-0.72,0.38-1.5,0.64-2.26,0.95c1.16-5.07,2.63-10.1,3.37-15.23C901.71,452.08,901.36,447.99,901.41,443.95z"/>
<path class="st8" d="M781.68,405.12c7.32,12.41,10.16,26.23,11.69,40.24c1.14,10.51,0.93,21.17,1.32,31.76
	c-3.59-0.67-7.18-1.34-10.77-2.01c-2.91-18.82-10.34-35.89-20.26-51.98c1.4-1.45,3.07-2.73,4.17-4.38
	C771.51,413.22,774.91,407.49,781.68,405.12z"/>
<path class="st9" d="M635.78,402.96c-17.04-11.41-35.42-19.58-55.88-22.35c-7.72-1.05-15.54-1.33-22.95-1.93
	c14.61-12.79,60.55-10.81,84.98,4.02c-0.4,1.91-0.64,3.87-1.23,5.72C639.14,393.29,637.43,398.11,635.78,402.96z"/>
<path class="st8" d="M839.31,425.08c-0.15,0.64-0.14,1.39-0.47,1.92c-9.35,14.8-15.05,30.97-18.2,48.11
	c-3.58,0.67-7.17,1.33-10.75,2c-0.56-21.39,1.24-42.46,8.67-62.72c1.07-2.92,2.71-5.63,4.09-8.44c3.73,3.92,7.55,7.75,11.14,11.78
	C835.82,420.01,837.48,422.62,839.31,425.08z"/>
<path class="st10" d="M802.91,389.95c-10.29,0.08-18.82-8.2-19.03-18.46c-0.21-10.2,8.73-19.29,18.92-19.23
	c10.05,0.06,18.71,8.76,18.78,18.86C821.65,381.32,813.16,389.88,802.91,389.95z"/>
<path class="st11" d="M859.46,414.03c5.55,2.76,5.04,8.62,6.07,13.25c2.48,11.2,1.24,22.3-3.23,32.99
	c-0.44,1.05,0.39,2.62,0.63,3.95c-8.7,3.96-17.39,7.92-26.09,11.88c-0.43-0.49-0.85-0.99-1.28-1.48
	C838.62,452.55,846.13,432.18,859.46,414.03z"/>
<path class="st9" d="M967.61,379.84c21.26-11.27,43.61-12.9,66.7-7.3c4.96,1.2,9.78,2.97,14.73,5.06
	c-26.86,0.03-51.6,7.04-74.29,21.15C972.36,392.45,969.98,386.14,967.61,379.84z"/>
<path class="st12" d="M880.62,358.82c2.66,3.22,5.52,6.31,7.93,9.71c1.74,2.47,2.89,5.35,4.3,8.05
	c-11.32,8.28-22.64,16.56-33.96,24.84c-3.9-4.54-7.77-9.1-11.71-13.61c-1.76-2.01-3.66-3.91-5.5-5.86
	c9.28-5.93,18.49-11.96,27.87-17.72C873.03,362.1,876.91,360.61,880.62,358.82z"/>
<path class="st13" d="M781.68,405.12c-6.77,2.36-10.17,8.1-13.85,13.63c-1.1,1.65-2.76,2.93-4.17,4.38
	c-8.6-9.69-17.2-19.37-25.79-29.06c4.11-4.31,8.24-8.6,12.32-12.94c1.61-1.71,3.09-3.53,4.63-5.29
	C766.56,383.05,775.75,392.59,781.68,405.12z"/>
<path class="st14" d="M635.78,402.96c1.65-4.85,3.36-9.67,4.92-14.55c0.59-1.85,0.83-3.81,1.23-5.72
	c10.87,5.59,20.43,12.91,28.81,21.8c1.69,1.8,3.44,3.54,5.17,5.3c-1.06,6.92-2.11,13.85-3.17,20.77c-0.42,2.73-0.83,5.46-1.25,8.18
	C660.9,425.51,649.51,413.07,635.78,402.96z"/>
<path class="st14" d="M967.61,379.84c2.38,6.3,4.75,12.61,7.13,18.91c-8.72,7.04-17.59,13.89-26.08,21.2
	c-3.4,2.92-5.94,6.84-8.87,10.3c-0.69-2.45-1.6-4.85-2.02-7.34c-0.86-5.15-1.36-10.35-2.24-15.49c-0.16-0.91-1.4-1.64-2.14-2.45
	C943.23,394.45,954.4,385.76,967.61,379.84z"/>
<path class="st14" d="M699.76,344.02c-1.68,2.37-3.43,4.7-5.03,7.13c-4.9,7.41-9.69,14.89-14.65,22.25
	c-1.17,1.73-2.84,3.13-4.27,4.68c-4.7-20.42-7.72-40.95-4.63-62.13C681.11,325.71,690.44,334.86,699.76,344.02z"/>
<path class="st11" d="M745.58,466.2c0.22-1.33,1.01-2.89,0.58-3.97c-6.3-15.76-5.86-31.52-0.34-47.34
	c12.98,17.84,20.12,37.9,23.35,59.45c-0.38,0.5-0.75,1-1.13,1.5C760.55,472.63,753.07,469.41,745.58,466.2z"/>
<path class="st15" d="M901.41,443.95c-0.05,4.04,0.3,8.13-0.27,12.09c-0.74,5.13-2.21,10.16-3.37,15.23
	c-15.71,8.64-32.9,10.97-50.43,11.82c-2.78,0.13-5.57,0.02-8.5-0.31C861.37,472.43,883.57,461.69,901.41,443.95z"/>
<path class="st11" d="M841.68,381.96c1.84,1.95,3.74,3.84,5.5,5.86c3.94,4.5,7.81,9.07,11.71,13.61
	c-6.53,7.89-13.06,15.77-19.58,23.66c-1.83-2.46-3.49-5.07-5.52-7.35c-3.59-4.03-7.41-7.87-11.14-11.78
	C826.93,396.32,833.28,388.33,841.68,381.96z"/>
<path class="st5" d="M754.83,375.84c-1.54,1.77-3.03,3.59-4.63,5.29c-4.08,4.34-8.21,8.63-12.32,12.94
	c-8.81-5.94-17.61-11.88-26.42-17.82c4.43-5.7,8.85-11.39,13.28-17.09C734.76,364.72,744.8,370.28,754.83,375.84z"/>
<path class="st15" d="M714.55,475.21c-0.77-4.69-1.54-9.37-2.3-14.06c-0.54-3.31-1.05-6.62-1.57-9.93
	c16.83,13.8,36.05,23.47,56.01,32.11C756.08,485.95,726.51,481.31,714.55,475.21z"/>
<path class="st16" d="M783.93,475.11c3.59,0.67,7.18,1.34,10.77,2.01c-0.84,14.74-1.57,29.49-2.57,44.22
	c-0.4,5.89-1.39,11.73-2.74,17.57C784.82,517.82,785.5,496.37,783.93,475.11z"/>
<path class="st16" d="M809.89,477.11c3.58-0.67,7.17-1.33,10.75-2c-1.48,21.22-0.47,42.65-5.24,63.65
	C812.03,518.3,809.63,497.83,809.89,477.11z"/>
<g>
	<g>
		<path class="st11" d="M674.66,570.19h5.66v29.32c0,11.63-5.72,15.21-13.26,15.21c-2.08,0-4.62-0.46-6.05-1.04l0.85-4.62
			c1.17,0.46,2.86,0.85,4.75,0.85c5.07,0,8.06-2.28,8.06-10.86V570.19z"/>
		<path class="st11" d="M706.97,614l-0.46-3.96h-0.2c-1.75,2.47-5.13,4.68-9.62,4.68c-6.37,0-9.62-4.49-9.62-9.04
			c0-7.61,6.76-11.77,18.92-11.7v-0.65c0-2.6-0.72-7.28-7.15-7.28c-2.93,0-5.98,0.91-8.19,2.34l-1.3-3.77
			c2.6-1.69,6.37-2.79,10.34-2.79c9.62,0,11.96,6.56,11.96,12.87v11.77c0,2.73,0.13,5.39,0.52,7.54H706.97z M706.12,597.95
			c-6.24-0.13-13.33,0.98-13.33,7.08c0,3.71,2.47,5.46,5.4,5.46c4.1,0,6.7-2.6,7.6-5.27c0.2-0.58,0.33-1.24,0.33-1.82V597.95z"/>
		<path class="st11" d="M720.87,592.36c0-3.71-0.06-6.89-0.26-9.82h5l0.2,6.17h0.26c1.43-4.22,4.88-6.89,8.71-6.89
			c0.65,0,1.1,0.06,1.62,0.19v5.4c-0.58-0.13-1.17-0.2-1.95-0.2c-4.03,0-6.89,3.06-7.67,7.35c-0.13,0.78-0.26,1.69-0.26,2.67V614
			h-5.66V592.36z"/>
		<path class="st11" d="M768.65,567.85v38.03c0,2.79,0.07,5.98,0.26,8.12h-5.14l-0.26-5.46h-0.13c-1.75,3.51-5.59,6.17-10.73,6.17
			c-7.61,0-13.46-6.44-13.46-15.99c-0.06-10.47,6.44-16.9,14.11-16.9c4.81,0,8.06,2.27,9.49,4.81h0.13v-18.79H768.65z
			 M762.93,595.35c0-0.72-0.06-1.69-0.26-2.41c-0.85-3.64-3.97-6.63-8.26-6.63c-5.92,0-9.43,5.2-9.43,12.16
			c0,6.37,3.12,11.63,9.3,11.63c3.83,0,7.35-2.54,8.39-6.83c0.19-0.78,0.26-1.56,0.26-2.47V595.35z"/>
		<path class="st11" d="M784.51,573.7c0.06,1.95-1.36,3.51-3.64,3.51c-2.01,0-3.44-1.56-3.44-3.51c0-2.01,1.5-3.58,3.58-3.58
			C783.14,570.13,784.51,571.69,784.51,573.7z M778.14,614v-31.46h5.72V614H778.14z"/>
	</g>
	<g>
		<path class="st11" d="M840.24,612.57c-2.08,1.04-6.24,2.08-11.57,2.08c-12.35,0-21.65-7.8-21.65-22.17
			c0-13.72,9.3-23.01,22.88-23.01c5.46,0,8.91,1.17,10.4,1.95l-1.36,4.62c-2.15-1.04-5.2-1.82-8.84-1.82
			c-10.27,0-17.1,6.57-17.1,18.07c0,10.73,6.18,17.62,16.84,17.62c3.45,0,6.96-0.72,9.23-1.82L840.24,612.57z"/>
		<path class="st11" d="M854.67,600.22L850.12,614h-5.85l14.89-43.81h6.83L880.93,614h-6.04l-4.68-13.78H854.67z M869.04,595.8
			l-4.29-12.61c-0.97-2.86-1.62-5.46-2.27-8h-0.13c-0.65,2.6-1.36,5.27-2.21,7.93l-4.29,12.67H869.04z"/>
		<path class="st11" d="M887.37,570.78c2.86-0.58,6.96-0.91,10.86-0.91c6.04,0,9.95,1.11,12.67,3.58c2.21,1.95,3.45,4.94,3.45,8.32
			c0,5.79-3.64,9.62-8.25,11.18v0.19c3.38,1.17,5.39,4.29,6.43,8.84c1.43,6.11,2.47,10.33,3.38,12.03h-5.85
			c-0.71-1.24-1.69-5-2.92-10.47c-1.3-6.04-3.64-8.32-8.78-8.51h-5.33V614h-5.66V570.78z M893.02,590.73h5.79
			c6.04,0,9.88-3.32,9.88-8.32c0-5.66-4.09-8.13-10.08-8.19c-2.73,0-4.68,0.26-5.59,0.52V590.73z"/>
		<path class="st11" d="M945.02,593.46h-17.03v15.8h18.98V614h-24.64v-43.81H946v4.75h-18.01v13.85h17.03V593.46z"/>
	</g>
</g>
</svg>
