<?xml version="1.0" encoding="utf-8"?>
<!-- Generator: Adobe Illustrator 24.1.0, SVG Export Plug-In . SVG Version: 6.00 Build 0)  -->
<svg version="1.1" id="Calque_1" xmlns="http://www.w3.org/2000/svg" xmlns:xlink="http://www.w3.org/1999/xlink" x="0px" y="0px"
	 viewBox="0 0 181 135" style="enable-background:new 0 0 181 135;" xml:space="preserve">
<style type="text/css">
	.st0{fill:#FEFEFE;}
	.st1{fill:#747474;}
	.st2{fill:#737373;}
	.st3{fill:#787878;}
	.st4{fill:#7D7D7D;}
	.st5{fill:#777777;}
	.st6{fill:#767676;}
	.st7{fill:#878787;}
	.st8{fill:#6D6D6D;}
	.st9{fill:#808080;}
	.st10{fill:#828282;}
	.st11{fill:#7B7B7B;}
	.st12{fill:#717171;}
	.st13{fill:#838383;}
	.st14{fill:#858585;}
	.st15{fill:#888888;}
	.st16{fill:#B7B7B7;}
	.st17{fill:#FDFDFD;}
	.st18{fill:#FAFAFA;}
</style>
<g>
	<g>
		<path class="st0" d="M88,116.5c-24.3,0-48.7,0-73,0c-0.3,0-0.7,0-1,0c-0.2,0-0.3,0-0.3-0.3c0-0.3,0-0.6,0-0.9
			c0-32.6,0-65.1,0-97.7c0-0.3,0-0.6,0-0.9c0-0.2,0-0.3,0.3-0.3c0.3,0,0.6,0,0.9,0c48.8,0,97.6,0,146.4,0c0.4,0,0.9-0.1,1.1,0
			c0.2,0.2,0,0.7,0,1.1c0,32.6,0,65.1,0,97.7c0,0.3,0,0.6,0,0.9c0,0.2,0,0.3-0.3,0.3c-0.3,0-0.7,0-1,0
			C136.7,116.5,112.3,116.5,88,116.5z M67.1,35.9c-0.1-0.1-0.2-0.2-0.3-0.3c-1.7-1-3.3-2.1-5-3.1c-1.1-0.6-2.1-1.2-3-2.1
			c-2-2-4-4-6-6c-0.2-0.2-0.5-0.4-0.8-0.6c-0.1,0.3-0.3,0.7-0.3,1c-0.1,0.3,0,0.6,0,0.8c0.1,2.7-0.3,5.4,0.3,8.1
			c0.2,1,0.2,2.1,0.3,3.1c0.6,0.5,0.2,1.3,0.5,1.9c0.3,0.6,0.1,1.5,0.4,2.1c0.3,0.6,0.3,1.3,0.4,1.9c0.5,1.7,1,3.5,1.5,5.2
			c0.6,1.8,1.3,3.5,2.6,4.9c1.1,1.6,2.5,2.9,3.8,4.2c1,1,2,2.1,3,3.2c0.1,0.5,0.6,0.5,0.9,0.7c1.9,1.3,3.8,2.7,5.7,3.9
			c0.4,0.3,0.7,0.9,1.4,0.7c0.1,0.1,0.2,0.2,0.3,0.3c0.1,0.1,0.1,0.2,0.2,0.3c1.8,0.8,3.7,1.6,5.5,2.5c0.3,0.1,0.8-0.1,1,0.4
			c0.1-0.1,0.4-0.2,0.4-0.3c0-0.4,0.1-0.8,0-1.1c-0.3-0.7-0.4-1.5-0.5-2.2c-0.2-1.2-0.7-2.4-0.9-3.6c-0.3-1.2-0.9-2.4-1.4-3.5
			c-0.9-2.3-2-4.3-3.7-6.6c0-0.1,0-0.2-0.1-0.2c-1-1-1.7-2.1-2.6-3.1c-0.8-0.9-1.3-2-2.4-2.6c-0.1-0.1-0.2-0.3-0.3-0.4
			c-0.7-0.5-1.5-1-2.2-1.6c-1-0.9-2.1-1.7-3.2-2.5c-0.4-0.3-0.8-0.6-1.1-0.9c0.1-0.1,0.2-0.2,0.3-0.3c0.6,0.2,1.1,0.4,1.7,0.6
			c1.1,0.8,2.2,1.6,3.3,2.3c1.4,1,2.9,1.9,4.3,2.8c0.6,0.7,1.1,1.4,1.7,2.1c1.2,1.3,2.4,2.6,3.7,4c0.1,0.1,0.2,0.2,0.3,0.3
			c0.3,0.7,0.9,1.1,1.4,1.6c0.1,0.1,0.2,0.2,0.3,0.3c0,0.7,0.6,1.2,0.9,1.8c1.3,2.6,2.7,5.1,3.5,7.9c0.4,1.4,1,2.9,1,4.4
			c0,0.2,0.2,0.5,0.3,0.7c-0.2,2.7,0.4,5.3,0.3,8c-0.1,1.7,0.5,3.3,0.3,5c0,0,0,0.1,0,0.1c0.4,0.5,0.2,1,0.3,1.6
			c0.1,0.5,0.2,1.1,0.3,1.6c0.1,0.6,0.2,1.1,0.3,1.7c0,0.1,0.1,0.1,0.1,0.2c0-0.1,0.1-0.1,0.1-0.2c0.2-1,0.3-2,0.5-3
			c0.2-0.9,0-1.9,0.3-2.9c0.2-0.8,0-1.8,0.1-2.7c0-0.9,0.2-1.8,0.3-2.7c0-1.3,0-2.5,0-3.8c0.4,0,0.3-0.3,0.3-0.5
			c-0.1-2.5,0.2-4.9-0.2-7.4c-0.2-1.2,0-2.6-0.3-3.8c-0.2-0.7-0.1-1.5-0.3-2.3c-0.3-1.7-0.7-3.4-1.2-5c-0.5-1.4-1.1-2.7-2-3.9
			c0-0.2,0-0.4-0.1-0.5c-0.9-1.5-1.9-2.9-3.1-4.2c-0.5-0.6-1.3-1-1.9-1.6c-0.7-0.7-1.5-1.2-2.3-1.6c-0.9-0.8-2-1.1-2.9-1.7
			c-1.6-1-3.3-1.9-5-2.9C67.7,36,67.4,36,67.1,35.9z M138.7,46.9c0.8-0.4,1.5-0.9,2.3-1.3c1.5-0.7,3-1.4,4.6-2
			c1.2-0.5,2.5-0.9,3.7-1.2c0.7-0.2,1.5-0.1,2.1-0.4c0.7-0.3,1.5,0.2,2.1-0.4c1.3-0.1,2.6-0.2,3.9-0.3c0.6,0,1.2,0,1.8,0
			c0.1,0,0.2-0.1,0.2-0.1c-0.1-0.1-0.1-0.1-0.2-0.2c-0.2-0.1-0.3-0.2-0.5-0.2c-2-0.4-3.7-1.5-5.8-1.5c-0.8-0.4-1.7-0.1-2.4-0.3
			c-0.8-0.3-1.6-0.2-2.5-0.2c-0.8,0-1.5-0.1-2.3,0.2c-0.7,0.3-1.6-0.2-2.3,0.3c-2,0.1-3.8,1-5.7,1.7c-0.5,0.2-1.1,0.3-1.4,0.8
			c-0.1,0-0.3-0.1-0.4,0c-1.5,0.9-3.1,1.6-4.5,2.7c-1.7,1.3-3.3,2.7-4.7,4.4c-1.3,0.3-1.8,1.5-2.5,2.4c-0.9,1.1-1.9,2.3-2.8,3.5
			c-0.9,1.2-2,2.3-2.8,3.5c-0.5,0.6-1.1,1.2-1.3,2c-0.6,0.2-1,0.6-1.4,1c-0.4,0.4-0.7,0.9-1.2,1.2c-1.4,0.9-2.7,2-4.2,2.9
			c-1.5,0.9-3,1.8-4.6,2.6c-1.9,1-3.9,1.9-5.9,2.9c-0.1,0-0.2,0.1-0.3,0.2c0.1,0,0.2,0.1,0.2,0.1c0.9,0,1.9,0,2.8,0
			c1-0.1,1.9,0.2,2.9-0.2c0.6-0.2,1.3,0.1,1.9-0.2c0.6-0.3,1.3,0.1,1.8-0.4c2-0.2,3.8-0.9,5.7-1.7c0.5-0.2,1.1-0.3,1.4-0.8
			c0.1,0,0.2,0,0.3,0c0.1-0.1,0.2-0.2,0.3-0.3c0.2,0,0.4,0,0.5-0.1c1.4-0.7,2.7-1.7,3.8-2.7c1.5-1.3,2.9-2.8,4.1-4.4
			c1.1-1.4,2.2-2.9,3.2-4.4c0.7-0.9,1.4-1.8,2.2-2.6c1.2-1.1,2.5-2,3.8-3C136.1,49.1,137.4,48,138.7,46.9z M43.8,42.7
			c-0.1-0.1-0.2-0.2-0.3-0.3c-2.2-1.2-4.5-2.1-7-2.6c-0.7-0.2-1.5-0.1-2.1-0.3c-0.5-0.1-0.9-0.2-1.3-0.2c-0.5-0.1-1-0.2-1.4-0.3
			c-0.8,0-1.7,0-2.6,0s-1.8-0.2-2.5,0.1c-0.8,0.3-1.7-0.1-2.3,0.5c-1.5,0-2.8,0.7-4.1,1.4c-0.2,0.1-0.3,0.3-0.4,0.4
			c0.2,0.1,0.4,0.2,0.6,0.2c0.7,0,1.4,0.1,2.2,0.2c1.2,0.2,2.4,0.2,3.6,0.3c1.4,0.1,2.6,0.7,4,0.6c1.8,0.9,3.8,1.1,5.5,2.1
			c1.5,0.8,3.1,1.7,4.7,2.4c0.6,0.3,0.9,0.9,1.6,0.9c0.1,0.1,0.2,0.3,0.3,0.4c0.8,0.6,1.7,1.2,2.5,1.9c1.6,1.6,3.2,3.2,4.8,4.8
			c0.3,0.3,0.4,0.6,0.7,0.9c0.3,0.4,0.7,0.8,1.1,1.1c0.4,0.3,0.3,1,0.9,1.1c0.7,1.1,1.4,2.3,2.2,3.2c1.8,1.9,3.6,3.9,5.9,5.3
			c1.1,0.7,2.3,1.4,3.5,1.7c0.4,0.5,1.2,0.3,1.6,0.8c1.5,0.3,2.9,0.8,4.3,1.2c1.5,0.4,3.1,0.5,4.6,0.8c1.5,0.2,3,0,4.5,0
			c0.1,0,0.2-0.1,0.2-0.1c-0.1-0.1-0.1-0.2-0.2-0.3c-1-0.6-2.1-0.9-3.1-1.4c-2.3-1.1-4.7-2.3-6.8-3.7c-1.6-1.1-3.4-2-4.8-3.4
			c-0.1-0.1-0.4-0.1-0.6-0.2c-1.1-1.8-2.6-3.1-3.8-4.8c-0.7-0.9-1.5-1.6-2.2-2.5c-0.6-0.8-1.2-1.6-1.8-2.4c-0.3-0.4-0.7-0.8-1.1-1.1
			c-0.5-0.3-0.4-1.1-1-1.2c-0.1-0.1-0.2-0.3-0.3-0.4c-1.8-1.7-3.4-3.5-5.5-5c-1.1-0.8-2.3-1.4-3.4-2.2C44.2,42.7,44,42.7,43.8,42.7z
			 M105.5,47.8c0.6-0.4,1.3-0.6,1.8-1.1c1.2-1.1,2.6-1.8,3.8-2.8c0.7-0.6,1.4-1,2.2-1.6c0.7-0.5,1.5-0.9,2.2-1.6
			c0.6-0.3,1.2-0.5,1.8-0.8c0.6-0.2,0.5,0.2,0.5,0.5c-0.3,0.2-0.7,0.4-1,0.6c-1.5,1.1-3,2-4.3,3.2c-0.3,0.3-0.8,0.2-0.9,0.7
			c-0.4,0.4-0.9,0.7-1.2,1.1c-1.2,1.5-2.3,2.9-3.7,4.2c-0.4,0.4-0.6,0.8-0.8,1.2c-0.3,0.3-0.6,0.5-0.8,0.8c-1.3,2.1-2.6,4.2-3.5,6.5
			c-0.3,0.7-0.6,1.3-0.8,1.9c-0.4,1.5-1.1,2.9-1.1,4.5c-0.6,0.4-0.1,1.1-0.4,1.5c-0.4,0.6-0.1,1.2-0.2,1.8c0,0.6,0.3,0.8,0.8,0.5
			c1.4-0.8,2.8-1.3,4.3-2c0.6-0.3,1.2-0.7,1.9-0.8c0.3-0.1,0.9-0.2,1-0.8c0.1,0,0.3,0.1,0.4,0c0.5-0.3,0.9-0.7,1.4-1.1
			c1.6-1.2,3.3-2.2,4.8-3.5c0.7-0.5,1.5-0.8,1.9-1.7c1.3-1.3,2.7-2.6,4-3.9c0.7-0.7,1.2-1.5,1.7-2.4c0.4-0.9,0.9-1.7,1.4-2.5
			c0.3-0.8,0.6-1.6,0.9-2.5c0.3-0.8,0.9-1.5,0.8-2.5c0.6-1.1,0.8-2.3,1.1-3.5c0.4-1.2,0.6-2.5,0.8-3.8c0.3-1.5,0.4-3,0.6-4.4
			c0.2-1.5,0-3,0.3-4.6c0.2-1,0.1-2,0-3c-0.1-0.8-0.2-1.7-0.5-2.5c-0.1-0.2-0.1-0.3-0.3-0.1c-0.1,0.1-0.3,0.2-0.4,0.4
			c-0.9,1.6-2.3,2.8-3.4,4.2c-1,1.2-2.3,2.1-3.5,3c-1.8,1.4-3.7,2.6-5.7,3.7c-0.5,0.3-0.9,0.7-1.4,1c-1.2,0.3-2.3,0.8-3.4,1.5
			c-1.2,0.7-2.3,1.5-3.5,2.2c-1.5,0.9-2.9,1.8-4.3,2.8c-0.6,0.2-1,0.5-1.4,1c-0.8,0.9-1.7,1.7-2.4,2.7c-0.7,0.9-1.3,2-1.6,3.1
			c-0.7,0.7-1,1.6-1.4,2.5c-0.5,1.3-0.8,2.7-1.2,4c-0.4,1.4-0.6,2.8-0.8,4.2c-0.1,0.9-0.3,1.8-0.3,2.7c-0.1,0.9,0,1.9,0,2.8
			c0,1.3,0,2.6,0,4c0,1.6,0,3.1,0,4.7c0,1.6,0.2,3.1,0.3,4.7c0,0.1,0,0.2,0,0.3c0.4,0.5,0.3,1.2,0.3,1.7c-0.1,0.6,0.3,1.1,0.3,1.7
			c0,1.4,0.5,2.7,0.6,4c0,0.1,0.1,0.1,0.1,0.2c0-0.1,0.1-0.1,0.1-0.2c0.1-0.8,0.3-1.6,0.5-2.5c0.2-0.8,0.1-1.7,0.3-2.6
			c0.2-0.8,0-1.8,0.1-2.7c0.1-0.9,0.3-1.8,0.3-2.7c0-1.8,0-3.7,0-5.5c0.5,0,0.3-0.4,0.3-0.6c0-1.2,0.2-2.4,0.5-3.6
			c0.2-0.7,0.5-1.3,0.6-2c0.3-1.6,1-3.1,1.6-4.6c0.8-1.9,2-3.5,2.7-5.4c0.3-0.2,0.7-0.4,0.8-0.7c0.1-0.5,0.6-0.7,0.8-1.1
			c0.3-0.4,0.5-0.7,0.8-1.1C103.5,50.3,104.6,49.1,105.5,47.8z M84.1,39.4c-0.2,1.4,0.5,2.6,1.4,3.6c1,1,2.3,1.6,3.8,1.6
			c1.7,0,2.9-0.7,4.1-1.8c1-1,1.5-2.3,1.4-3.6c-0.2-3-2.3-5.2-5.3-5.3C87.1,33.7,83.8,36.3,84.1,39.4z M113.4,102.1
			c0,1.9,0,3.8,0,5.7c0,0.3,0,0.5,0.4,0.4c0.2,0,0.5,0,0.7,0c0.5,0,0.7,0,0.7-0.6c-0.1-1.1,0-2.2,0-3.3c0-0.5,0.1-1,0.1-1.5
			c0.7,0,1.4-0.1,2.1,0.1c0.7,0.2,1.3,0.7,1.5,1.6c0.3,1,0.5,2.1,0.8,3.1c0.1,0.4,0.3,0.7,0.7,0.6c0.4,0,0.8-0.1,1.2-0.1
			c-0.4-0.3-0.1-0.8-0.3-1.1c-0.3-0.7-0.3-1.4-0.6-2c-0.3-0.9-0.3-2-1.5-2.4c0,0-0.1-0.2-0.1-0.2c0.2-0.2,0.5-0.4,0.7-0.6
			c1.2-0.6,1.1-1.9,1.4-2.9c-0.4-0.8-0.5-1.7-1.4-2.3c-0.7-0.5-1.4-0.9-2.4-0.8c-1.1,0.1-2.2,0-3.3,0c-0.8,0-1,0.2-1,1
			C113.4,98.5,113.4,100.3,113.4,102.1z M79.9,101.8c0-1.8,0-3.6,0-5.4c0-1.3,0-1.3-1.3-1.2c-0.3,0-0.4,0.1-0.4,0.4c0,1.3,0,2.6,0,4
			c0,0.2-0.1,0.3-0.2,0.5c0,0-0.3,0-0.4-0.1c-0.5-0.5-1-0.8-1.7-0.7c-0.6,0.1-1.3-0.3-1.9,0.2c-0.2,0.2-0.6,0.1-0.7,0.2
			c-2.2,1.8-2.6,5-1.1,7.3c0.7,1,1.8,1.7,3.1,1.6c1-0.1,1.8-0.4,2.5-1.2c0.1-0.2,0.2-0.3,0.3,0c0.3,0.9,0.3,0.9,1.2,0.9
			c0.5,0,0.5-0.2,0.5-0.6C79.9,105.7,79.9,103.7,79.9,101.8z M110.9,108.3c0.1,0,0.2,0,0.3,0c0.6,0,0.6,0,0.4-0.6
			c-0.4-1.2-0.9-2.4-1.3-3.6c-0.9-2.6-1.7-5.1-2.6-7.7c-0.1-0.3-0.3-0.6-0.7-0.6c-0.2,0-0.5,0-0.7,0c-0.9,0-0.9,0-1.2,0.9
			c-0.5,1.5-1,3-1.5,4.5c-0.8,2.3-1.5,4.6-2.3,6.8c-0.1,0.3,0,0.3,0.2,0.3c0.2,0,0.5,0,0.7,0c0.7,0,0.7,0,1-0.8
			c0.3-0.8,0.6-1.6,0.8-2.5c0.1-0.5,0.4-0.7,0.9-0.7c1,0,2,0.1,3,0c0.5,0,0.7,0.2,0.9,0.6c0.3,0.8,0.7,1.6,1,2.4
			C110.1,108.2,110,108.3,110.9,108.3z M123.4,102c0,1.9,0,3.9,0,5.8c0,0.3,0,0.4,0.4,0.4c2.1,0,4.3,0,6.4,0c0.1,0,0.3-0.2,0.3-0.3
			c0.1-0.2,0-0.5,0-0.7c0-0.3-0.1-0.4-0.4-0.4c-1.5,0-3,0-4.5,0c-0.4,0-0.5-0.1-0.5-0.5c0-1.1,0-2.2,0-3.3c0-0.5,0.2-0.5,0.6-0.5
			c1.3,0,2.6,0,3.8,0c0.3,0,0.4,0,0.4-0.4c0.1-1.1,0.1-1.1-1-1.1c-0.1,0-0.3,0-0.4,0c-1.1,0-2.2-0.1-3.4-0.1c0-1.1,0-2.3,0-3.4
			c0-0.4,0.1-0.5,0.5-0.5c1.4,0,2.8,0,4.3,0c0.3,0,0.4-0.1,0.4-0.4c0-0.2,0-0.5,0-0.7c0-0.1-0.2-0.3-0.3-0.3c-2,0-4.1,0-6.1,0
			c-0.3,0-0.4,0.2-0.4,0.4C123.4,98.1,123.4,100.1,123.4,102z M90.7,101.8c0,0.4,0,0.7,0,0.9c0,2.3,1.2,3.9,3.1,5.1
			c1.8,1,3.7,0.9,5.6,0.4c0.6-0.2,0.8-0.7,0.6-1.2c-0.1-0.2-0.2-0.5-0.6-0.2c-0.5,0.3-1.1,0-1.7,0.3c-0.6,0.3-1.2-0.1-1.9-0.2
			c-0.7-0.2-1.4-0.4-2-1c-0.7-0.7-1-1.6-1.2-2.6c-0.3-1.4-0.3-2.4,0.4-3.6c0.8-1.7,1.7-2.3,3.5-2.4c0.2,0,0.3-0.1,0.5-0.1
			c0.2-0.1,0.6-0.2,0.6-0.1c0.5,0.6,1.3-0.1,1.8,0.5c0,0,0.4-0.1,0.5-0.3c0.4-0.5,0.1-1.2-0.5-1.3c-0.7-0.2-1.4-0.3-2.1-0.3
			c-0.7,0-1.3,0.1-2,0.3c-0.7,0.1-2.8,1.3-3.1,1.8C91.3,98.9,90.4,100.3,90.7,101.8z M63.7,105.1c0-0.8,0-1.5,0-2.3
			c0-0.8-0.3-1.5-0.6-2.2c-0.3-0.7-1-1-1.6-1.4c-1.3,0.1-2.7-0.2-3.9,0.5c-0.5,0.3-0.4,0.2-0.2,0.8c0.1,0.6,0.6,0.5,0.7,0.4
			c0.3-0.4,0.7-0.2,1-0.3c1.3-0.5,2-0.2,2.6,1.1c0.4,0.7,0.6,1.1-0.6,1c-0.2,0-0.4,0-0.6,0c-1.3,0.2-2.5,0.5-3.4,1.5
			c-0.7,0.8-0.8,1.8-0.5,2.7c0.2,0.6,0.6,1.2,1.3,1.5c1.3,0.5,2.6,0.5,3.6-0.6c0.2-0.2,0.4-0.2,0.5,0c0.2,0.5,0.5,0.6,1,0.6
			c0.4,0,0.6,0,0.6-0.5C63.6,106.9,63.7,106,63.7,105.1z M52.9,100.7c0,1.5,0,3,0,4.5c0,0.2,0,0.5-0.1,0.7c-0.5,0.9-1.8,1.4-2.8,1
			c-0.5-0.2-0.6,0.1-0.8,0.3c-0.2,0.3,0,0.9,0.3,1c1.2,0.6,2.3,0.2,3.4-0.1c1-0.4,1.4-1.3,1.6-2.1c0.3-0.9,0.3-1.9,0.3-2.8
			c0-2,0-4,0-5.9c0-1.5,0-1.5-1.5-1.4c0,0-0.1,0-0.1,0c-0.3,0-0.4,0.1-0.4,0.4C52.9,97.7,52.9,99.2,52.9,100.7z M66.2,104.2
			c0,1.2,0,2.5,0,3.7c0,0.3,0.1,0.4,0.4,0.4c0.3,0,0.6,0,0.8,0c0.4,0,0.5-0.1,0.5-0.5c0-1.6,0-3.1,0-4.7c0-0.7,0.3-1.4,0.7-1.8
			c0.3-0.4,1-0.8,1.7-0.7c0.5,0.1,0.6-0.2,0.5-0.6c0-0.2,0-0.4,0-0.6c0-0.1-0.1-0.3-0.2-0.3c-0.6,0-1.3-0.1-1.9,0.3
			c-0.3,0.2-0.5,0.6-0.7,0.9c-0.1,0.1-0.1,0.1-0.2,0.2c0-0.1-0.1-0.2-0.1-0.2c0-0.2,0-0.4,0-0.6c-0.1-0.5-0.6-0.8-1.2-0.6
			c-0.4,0.1-0.4,0.4-0.3,0.9c0.1,0.3,0.1,0.5,0.1,0.8C66.2,102,66.2,103.1,66.2,104.2z M84.1,103.8c0-1.3,0-2.5,0-3.8
			c0-0.8,0-0.8-0.9-0.8c0,0-0.1,0-0.1,0c-0.7,0-0.7,0-0.7,0.6c0,2.5,0,5.1,0,7.6c0,0.8,0,0.8,0.9,0.8c0.1,0,0.2,0,0.3,0
			c0.4,0.1,0.6,0,0.6-0.5C84.1,106.4,84.1,105.1,84.1,103.8z M83,97.8c0.6,0,0.7,0,1-0.3c0.2-0.2,0.4-0.3,0.4-0.5
			c0.1-0.5-0.6-1.1-1.1-1.1c-0.5,0-1.1,0.5-1.2,0.9C82.1,97.2,82.5,97.7,83,97.8z"/>
		<path class="st1" d="M57.7,52.9c-1.2-1.5-1.9-3.2-2.6-4.9c-0.6-1.7-1.1-3.4-1.5-5.2c-0.2-0.6-0.1-1.3-0.4-1.9
			c-0.3-0.6-0.1-1.5-0.4-2.1c-0.3-0.6,0.1-1.4-0.5-1.9c-0.1-1-0.1-2.1-0.3-3.1c-0.5-2.7-0.1-5.4-0.3-8.1c0-0.3,0-0.6,0-0.8
			c0.1-0.3,0.2-0.7,0.3-1c0.3,0.2,0.6,0.4,0.8,0.6c2,2,4,4,6,6c0.9,0.9,1.9,1.5,3,2.1c1.7,1,3.3,2.1,5,3.1c0.1,0.1,0.2,0.2,0.3,0.3
			c-0.6,1.4-1.8,2.4-2.7,3.6c-0.3,0.4-0.4,1.1-1,1.2c-0.6-0.2-1.1-0.4-1.7-0.6c-0.1-0.6-0.6-0.1-0.9-0.4c-0.1-0.1-0.5-0.1-0.7-0.1
			c0.2,0.1,0.3,0.3,0.5,0.4c0.3,0.2,0.5,0.3,0.8,0.4c0.4,0.3,0.8,0.6,1.1,0.9c-0.2,0.3-0.4,0.6-0.6,0.9c-0.4,0.9-0.8,1.8-1.1,2.6
			c-0.4,1-1,2-1.3,3c-0.3,1-1,2-1,3.1C58,51.5,58.5,52.5,57.7,52.9z"/>
		<path class="st2" d="M117.7,40.4c0-0.3,0.1-0.7-0.5-0.5c-0.6,0.2-1.2,0.5-1.8,0.8c-0.2-0.1-0.5-0.2-0.5-0.4
			c-0.4-0.9-1-1.6-1.5-2.4c-0.5-0.7-1.2-1.2-1.6-2c0.5-0.3,0.9-0.7,1.4-1c2-1.1,3.9-2.3,5.7-3.7c1.2-1,2.6-1.8,3.5-3
			c1.1-1.4,2.5-2.7,3.4-4.2c0.1-0.2,0.3-0.3,0.4-0.4c0.2-0.2,0.2-0.1,0.3,0.1c0.3,0.8,0.4,1.6,0.5,2.5c0.1,1,0.2,2,0,3
			c-0.3,1.5-0.1,3.1-0.3,4.6c-0.2,1.5-0.3,3-0.6,4.4c-0.2,1.3-0.4,2.5-0.8,3.8c-0.3,1.2-0.5,2.4-1.1,3.5c0.1,1-0.6,1.7-0.8,2.5
			c-0.3,0.8-0.6,1.6-0.9,2.5c-0.2,0-0.5,0.1-0.6-0.2c-0.2-0.9-0.6-1.8-1.1-2.7c-0.3-0.6-0.7-1.1-0.9-1.8
			C119.4,43.8,118.3,42.2,117.7,40.4z"/>
		<path class="st3" d="M117.7,40.4c0.7,1.8,1.7,3.4,2.3,5.3c0.2,0.6,0.6,1.2,0.9,1.8c0.5,0.9,0.8,1.7,1.1,2.7
			c0.1,0.4,0.4,0.2,0.6,0.2c-0.5,0.8-1,1.7-1.4,2.5c-0.4,0.9-0.9,1.7-1.7,2.4c-1.3,1.3-2.7,2.6-4,3.9c-0.3,0-0.6,0.1-0.6-0.4
			c0-0.9,0.2-1.9-0.1-2.7c-0.3-0.8,0.1-1.7-0.5-2.5c0.1-0.8-0.4-1.5-0.6-2.3c-0.1-0.8-0.6-1.5-0.9-2.3c-0.5-1.4-1.1-2.6-1.4-4.1
			c0.1-0.5,0.6-0.5,0.9-0.7c1.4-1.2,2.9-2.1,4.3-3.2C117,40.8,117.3,40.6,117.7,40.4z"/>
		<path class="st4" d="M111.4,44.9c0.3,1.4,0.9,2.7,1.4,4.1c0.3,0.8,0.7,1.5,0.9,2.3c0.1,0.8,0.7,1.5,0.6,2.3
			c0.6,0.7,0.2,1.6,0.5,2.5c0.3,0.8,0.1,1.8,0.1,2.7c0,0.5,0.3,0.3,0.6,0.4c-0.4,0.9-1.3,1.1-1.9,1.7c-1.5,1.2-3.2,2.3-4.8,3.5
			c-0.5,0.3-0.9,0.7-1.4,1.1c-0.1,0.1-0.3,0-0.4,0c-0.4-0.2-0.7-0.4-0.3-1c0.3-0.6,0.5-1.3,0.7-2c0.2-0.7,0-1.4,0.3-2
			c0.5-1.2,0.3-2.4,0.2-3.6c-0.1-0.9-0.3-1.9-0.5-2.9c-0.2-1-0.6-1.9-1.4-2.5c0.2-0.4,0.4-0.9,0.8-1.2c1.4-1.3,2.5-2.8,3.7-4.2
			C110.5,45.6,111,45.3,111.4,44.9z"/>
		<path class="st4" d="M72.5,65.7c-0.7,0.1-1-0.5-1.4-0.7c-1.9-1.2-3.8-2.6-5.7-3.9c-0.3-0.2-0.8-0.2-0.9-0.7c0.3,0,0.6,0.1,0.6-0.4
			c0-1.5-0.1-3,0.2-4.6c0.2-0.9,0.4-1.8,0.6-2.7c0.2-1,0.6-1.8,0.9-2.8c0.3-1,0.6-1.9,1.1-2.8c0.2-0.4,0.5-0.8,0.3-1.3
			c1.1,0.6,1.6,1.7,2.4,2.6c0.9,1,1.7,2.2,2.6,3.1c0.1,0.1,0.1,0.2,0.1,0.2c-0.6,1.2-0.9,2.6-1.1,3.9c-0.2,0.8,0.1,1.6-0.3,2.4
			c-0.1,0.2-0.1,0.7,0,0.8c0.4,0.5,0.2,1,0.3,1.5c0.1,0.8,0.2,1.6,0.3,2.4c0.1,0.4,0.3,0.8,0.5,1.2c0.2,0.5,0.3,1,0.4,1.6
			c0.1,0.5-0.3,0.3-0.6,0.4C72.7,65.9,72.6,65.8,72.5,65.7z"/>
		<path class="st3" d="M68.2,45.8c0.1,0.5-0.1,0.9-0.3,1.3c-0.5,0.9-0.9,1.8-1.1,2.8c-0.2,0.9-0.7,1.8-0.9,2.8
			c-0.2,0.9-0.4,1.8-0.6,2.7c-0.3,1.5-0.2,3-0.2,4.6c0,0.5-0.3,0.3-0.6,0.4c-1-1.1-2-2.1-3-3.2c-1.3-1.4-2.7-2.6-3.8-4.2
			c0.8-0.4,0.3-1.4,0.9-2c0-1.1,0.7-2.1,1-3.1c0.3-1,0.8-2,1.3-3c0.4-0.9,0.7-1.8,1.1-2.6c0.1-0.3,0.4-0.6,0.6-0.9
			c1.1,0.7,2.2,1.6,3.2,2.5c0.7,0.6,1.4,1.1,2.2,1.6C68.1,45.5,68.1,45.6,68.2,45.8z"/>
		<path class="st5" d="M63.7,68.5c-1.3-0.4-2.4-1-3.5-1.7c-2.3-1.4-4-3.4-5.9-5.3c-0.9-0.9-1.5-2.1-2.2-3.2c0,0,0.1,0,0.1,0
			c0.1-0.8,0.3-1.6,0.4-2.4c0.1-0.9,0.1-1.8,0.3-2.5c0.2-0.5,0.2-1,0.2-1.5c0.1-0.5,0.2-1.1,0.3-1.6c0.6,0.1,0.6,0.9,1,1.2
			c0.4,0.3,0.8,0.7,1.1,1.1c0.6,0.8,1.2,1.6,1.8,2.4c0.7,0.9,1.5,1.6,2.2,2.5c1.2,1.6,2.7,3,3.8,4.8c0.1,0.6-0.2,1.2,0.2,1.8
			c0.3,0.5-0.2,1.3,0.4,1.8c-0.2,0.8,0.2,1.5,0.3,2.3C64.3,68.6,63.9,68.5,63.7,68.5z"/>
		<path class="st6" d="M116.8,67.7c-0.1,0-0.2,0-0.3,0c0.5-2,1-3.9,0.9-6c0-0.5,0-0.9,0-1.4c0.2-0.8,0.9-1.3,1.3-2
			c0.9-1.2,2-2.3,2.8-3.5c0.9-1.2,1.8-2.3,2.8-3.5c0.7-0.9,1.2-2.1,2.5-2.4c0.8,1,0.6,2.3,0.8,3.5c0.2,1.1,0.5,2.1,0.6,3.1
			c0.1,0.4,0.4,0.2,0.6,0.2c-1,1.5-2.1,3-3.2,4.4c-1.2,1.6-2.6,3-4.1,4.4c-1.1,1-2.4,2-3.8,2.7c-0.2,0.1-0.3,0.1-0.5,0.1
			C117,67.5,116.9,67.6,116.8,67.7z"/>
		<path class="st7" d="M83.3,48.6c0.9,1.2,1.5,2.5,2,3.9c0.6,1.6,0.9,3.3,1.2,5c0.1,0.8,0.1,1.6,0.3,2.3c0.3,1.3,0.1,2.6,0.3,3.8
			c0.5,2.5,0.1,4.9,0.2,7.4c0,0.2,0.1,0.5-0.3,0.5c0-0.6,0-1.2,0-1.8c0-0.4-0.2-0.7-0.5-0.7c-0.8-0.2-1.6-0.2-2.4-0.3
			c-0.1-0.2-0.3-0.5-0.3-0.7c0-1.5-0.6-3-1-4.4c-0.8-2.8-2.2-5.3-3.5-7.9c-0.3-0.6-0.9-1-0.9-1.8c0.2-0.2,0.5-0.3,0.6-0.5
			c0.5-0.8,1.1-1.5,1.6-2.3c0.6-0.9,1.3-1.7,2.4-2.1C83.4,49.1,83.2,48.8,83.3,48.6z"/>
		<path class="st8" d="M41.8,48.1c-0.7,0-1.1-0.6-1.6-0.9c-1.6-0.8-3.1-1.6-4.7-2.4c-1.7-0.9-3.7-1.2-5.5-2.1
			c-1.4,0.1-2.7-0.5-4-0.6c-1.2-0.1-2.4-0.1-3.6-0.3c-0.7-0.1-1.4-0.2-2.2-0.2c-0.2,0-0.4-0.1-0.6-0.2c0.1-0.1,0.2-0.3,0.4-0.4
			c1.3-0.7,2.6-1.4,4.1-1.4c0.7-0.6,1.6-0.2,2.3-0.5c0.7-0.3,1.7-0.1,2.5-0.1s1.7,0,2.6,0c0.5,0,1,0.2,1.4,0.3
			c0.4,0.1,0.9,0.1,1.3,0.2c0.7,0.2,1.4,0.1,2.1,0.3c2.5,0.5,4.8,1.4,7,2.6c0.1,0.1,0.2,0.2,0.3,0.3c-0.3,1.1-0.5,2.2-0.9,3.3
			C42.6,46.7,42.5,47.5,41.8,48.1z"/>
		<path class="st7" d="M100.1,54.3c-0.7,1.9-1.9,3.5-2.7,5.4c-0.6,1.5-1.3,2.9-1.6,4.6c-0.1,0.7-0.4,1.3-0.6,2
			c-0.3,1.2-0.6,2.4-0.5,3.6c0,0.2,0.2,0.6-0.3,0.6c0-0.5,0-0.9,0-1.4c0-0.3-0.3-0.4-0.4-0.3c-0.8,0.4-1.6,0.2-2.4,0.6
			c0-1.3,0-2.6,0-4c0-0.9,0-1.9,0-2.8c0-0.9,0.2-1.8,0.3-2.7c0.2-1.4,0.4-2.8,0.8-4.2c0.4-1.3,0.6-2.8,1.2-4
			c0.4-0.8,0.7-1.8,1.4-2.5c0,0.1,0,0.2,0.1,0.2c1.5,1.5,2.9,3,4.1,4.7C99.5,54.2,99.8,54.2,100.1,54.3z"/>
		<path class="st9" d="M84.1,39.4c-0.4-3.1,3-5.7,5.5-5.6c3,0.2,5.1,2.3,5.3,5.3c0.1,1.3-0.4,2.6-1.4,3.6c-1.1,1.1-2.4,1.8-4.1,1.8
			c-1.6,0-2.8-0.6-3.8-1.6C84.6,42.1,84,40.9,84.1,39.4z"/>
		<path class="st10" d="M105.7,51.5c0.8,0.6,1.3,1.5,1.4,2.5c0.2,1,0.4,1.9,0.5,2.9c0.1,1.2,0.3,2.4-0.2,3.6c-0.2,0.6-0.1,1.3-0.3,2
			c-0.2,0.7-0.3,1.4-0.7,2c-0.4,0.6-0.1,0.8,0.3,1c-0.1,0.6-0.7,0.7-1,0.8c-0.7,0.1-1.3,0.6-1.9,0.8c-1.4,0.6-2.9,1.2-4.3,2
			c-0.5,0.3-0.8,0.1-0.8-0.5c0-0.6-0.2-1.2,0.2-1.8c0.3-0.5-0.2-1.1,0.4-1.5c0-1.6,0.7-3,1.1-4.5c0.2-0.7,0.5-1.3,0.8-1.9
			c0.9-2.3,2.2-4.4,3.5-6.5C105.1,52,105.5,51.8,105.7,51.5z"/>
		<path class="st11" d="M111.7,35.9c0.4,0.8,1.1,1.2,1.6,2c0.5,0.8,1.2,1.5,1.5,2.4c0.1,0.2,0.3,0.3,0.5,0.4c-0.7,0.6-1.5,1-2.2,1.6
			c-0.7,0.5-1.5,1-2.2,1.6c-1.2,1-2.6,1.8-3.8,2.8c-0.5,0.5-1.2,0.7-1.8,1.1c-0.6-0.1-0.5-0.7-0.8-1c-1.2-1.2-2.3-2.5-3.5-3.8
			c-0.2-0.2-0.3-0.4-0.5-0.6c1.3-1.1,2.8-2,4.3-2.8c1.2-0.7,2.3-1.5,3.5-2.2C109.4,36.7,110.5,36.1,111.7,35.9z"/>
		<path class="st9" d="M83.3,48.6c0,0.2,0.1,0.5-0.2,0.6c-1.1,0.4-1.7,1.2-2.4,2.1c-0.5,0.8-1.1,1.5-1.6,2.3
			c-0.1,0.2-0.4,0.3-0.6,0.5c-0.1-0.1-0.2-0.2-0.3-0.3c-0.6-0.4-1.2-0.8-1.4-1.6c0-0.1-0.2-0.2-0.3-0.3c-1.2-1.3-2.5-2.6-3.7-4
			c-0.6-0.7-1.1-1.4-1.7-2.1c0.3-0.3,0.7-0.5,0.9-0.8c0.7-1.2,1.8-2,2.7-3c0.4-0.4,0.8-0.9,1.2-1.3c0.9,0.4,1.6,0.9,2.3,1.6
			c0.6,0.6,1.3,1,1.9,1.6c1.2,1.3,2.2,2.7,3.1,4.2C83.3,48.3,83.3,48.5,83.3,48.6z"/>
		<path class="st12" d="M41.8,48.1c0.7-0.5,0.8-1.4,1.1-2.1c0.4-1,0.6-2.2,0.9-3.3c0.2,0,0.4,0,0.5,0.1c1.1,0.8,2.3,1.4,3.4,2.2
			c2.1,1.4,3.7,3.2,5.5,5c0.1,0.1,0.2,0.3,0.3,0.4c-0.1,0.5-0.2,1.1-0.3,1.6c-0.1,0.5,0,0.9-0.2,1.5c-0.3,0.8-0.2,1.7-0.3,2.5
			c-0.1,0.8-0.3,1.6-0.4,2.4c0,0-0.1,0-0.1,0c-0.6-0.1-0.6-0.8-0.9-1.1c-0.4-0.3-0.7-0.7-1.1-1.1c-0.2-0.3-0.4-0.6-0.7-0.9
			c-1.6-1.6-3.2-3.2-4.8-4.8c-0.8-0.7-1.6-1.3-2.5-1.9C42,48.4,41.9,48.2,41.8,48.1z"/>
		<path class="st8" d="M136.4,41.8c0.3-0.5,0.9-0.6,1.4-0.8c1.8-0.7,3.6-1.6,5.7-1.7c0.7-0.5,1.6,0,2.3-0.3c0.8-0.3,1.5-0.2,2.3-0.2
			c0.8,0,1.6-0.1,2.5,0.2c0.7,0.3,1.6-0.1,2.4,0.3c2.1,0,3.8,1.1,5.8,1.5c0.2,0,0.3,0.2,0.5,0.2c0.1,0,0.1,0.1,0.2,0.2
			c-0.1,0-0.2,0.1-0.2,0.1c-0.6,0-1.2,0-1.8,0c-1.3,0.1-2.6,0.2-3.9,0.3c-0.6,0.6-1.4,0.1-2.1,0.4c-0.6,0.3-1.4,0.2-2.1,0.4
			c-1.3,0.4-2.5,0.8-3.7,1.2c-1.5,0.6-3.1,1.3-4.6,2c-0.8,0.4-1.5,0.9-2.3,1.3c-0.2,0-0.5,0.1-0.6-0.2c-0.1-0.7-0.5-1.4-0.7-2.1
			C137.1,43.7,136.6,42.8,136.4,41.8z"/>
		<path class="st12" d="M136.4,41.8c0.1,1,0.7,1.9,1,2.8c0.2,0.7,0.6,1.3,0.7,2.1c0,0.3,0.4,0.2,0.6,0.2c-1.3,1.1-2.6,2.2-3.9,3.2
			c-1.3,1-2.6,1.9-3.8,3c-0.8,0.8-1.5,1.7-2.2,2.6c-0.2,0-0.5,0.1-0.6-0.2c-0.2-1.1-0.5-2.1-0.6-3.1c-0.2-1.2,0-2.4-0.8-3.5
			c1.4-1.6,3-3.1,4.7-4.4c1.4-1.1,3-1.8,4.5-2.7C136.1,41.8,136.3,41.8,136.4,41.8z"/>
		<path class="st10" d="M72.8,66c0.3,0,0.6,0.1,0.6-0.4c-0.1-0.5-0.2-1-0.4-1.6c-0.1-0.4-0.4-0.8-0.5-1.2c-0.1-0.8-0.2-1.6-0.3-2.4
			c-0.1-0.5,0.1-1-0.3-1.5c-0.1-0.2-0.1-0.6,0-0.8c0.4-0.8,0.1-1.6,0.3-2.4c0.3-1.3,0.5-2.7,1.1-3.9c1.8,2.3,2.8,4.3,3.7,6.6
			c0.5,1.2,1.1,2.3,1.4,3.5c0.3,1.2,0.7,2.4,0.9,3.6c0.1,0.7,0.2,1.5,0.5,2.2c0.1,0.3,0,0.8,0,1.1c0,0.1-0.2,0.2-0.4,0.3
			c-0.2-0.5-0.7-0.2-1-0.4c-1.8-0.8-3.7-1.6-5.5-2.5C72.9,66.2,72.8,66,72.8,66z"/>
		<path class="st4" d="M117.4,60.3c0,0.5,0,0.9,0,1.4c0.2,2.1-0.3,4-0.9,6c-0.3,0.5-0.9,0.6-1.4,0.8c-1.8,0.8-3.7,1.5-5.7,1.7
			c-0.5,0.6-1.2,0.2-1.8,0.4c-0.6,0.2-1.3-0.1-1.9,0.2c-1,0.4-1.9,0.2-2.9,0.2c-0.9,0.1-1.9,0-2.8,0c-0.1,0-0.2-0.1-0.2-0.1
			c0.1-0.1,0.2-0.1,0.3-0.2c2-0.9,4-1.8,5.9-2.9c1.6-0.8,3.1-1.7,4.6-2.6c1.5-0.9,2.7-2,4.2-2.9c0.5-0.3,0.8-0.8,1.2-1.2
			C116.4,60.8,116.8,60.5,117.4,60.3z"/>
		<path class="st10" d="M100.6,42.4c0.2,0.2,0.3,0.4,0.5,0.6c1.2,1.3,2.3,2.5,3.5,3.8c0.3,0.3,0.3,0.9,0.8,1c-0.9,1.3-1.9,2.5-3,3.7
			c-0.3,0.3-0.5,0.7-0.8,1.1c-0.3,0.4-0.7,0.6-0.8,1.1c-0.1,0.3-0.5,0.5-0.8,0.7c-0.2-0.1-0.5-0.1-0.6-0.2c-1.2-1.7-2.6-3.2-4.1-4.7
			c-0.1-0.1-0.1-0.2-0.1-0.2c0.3-1.2,0.9-2.2,1.6-3.1c0.7-1,1.6-1.8,2.4-2.7C99.6,42.9,100.1,42.6,100.6,42.4z"/>
		<path class="st3" d="M75.9,40.7c-0.4,0.4-0.8,0.9-1.2,1.3c-0.9,1-2,1.8-2.7,3c-0.2,0.3-0.6,0.5-0.9,0.8c-1.4-0.9-2.9-1.8-4.3-2.8
			c-1.1-0.7-2.2-1.5-3.3-2.3c0.6-0.1,0.7-0.8,1-1.2c0.9-1.2,2.1-2.2,2.7-3.6c0.3,0.1,0.6,0.1,0.9,0.3c1.7,0.9,3.4,1.8,5,2.9
			C73.9,39.6,75,39.9,75.9,40.7z"/>
		<path class="st4" d="M63.7,68.5c0.3,0,0.6,0.1,0.6-0.4c-0.1-0.8-0.4-1.5-0.3-2.3c-0.6-0.5,0-1.3-0.4-1.8c-0.4-0.6-0.1-1.2-0.2-1.8
			c0.2,0.1,0.5,0.1,0.6,0.2c1.4,1.4,3.2,2.3,4.8,3.4c2.2,1.4,4.5,2.6,6.8,3.7c1,0.5,2.1,0.9,3.1,1.4c0.1,0.1,0.1,0.2,0.2,0.3
			c-0.1,0-0.2,0.1-0.2,0.1c-1.5,0-3.1,0.2-4.5,0c-1.5-0.2-3.1-0.4-4.6-0.8c-1.5-0.3-2.9-0.9-4.3-1.2C64.9,68.8,64.1,69,63.7,68.5z"
			/>
		<path class="st10" d="M113.4,102.1c0-1.8,0-3.6,0-5.4c0-0.8,0.2-1,1-1c1.1,0,2.2,0.1,3.3,0c0.9-0.1,1.7,0.3,2.4,0.8
			c0.8,0.5,1,1.5,1.4,2.3c-0.3,1-0.2,2.3-1.4,2.9c-0.3,0.1-0.5,0.4-0.7,0.6c0,0,0,0.2,0.1,0.2c1.1,0.4,1.2,1.5,1.5,2.4
			c0.2,0.7,0.3,1.4,0.6,2c0.2,0.3-0.1,0.8,0.3,1.1c-0.4,0-0.8,0.1-1.2,0.1c-0.5,0-0.6-0.3-0.7-0.6c-0.3-1-0.5-2-0.8-3.1
			c-0.2-0.9-0.9-1.3-1.5-1.6c-0.6-0.2-1.4-0.1-2.1-0.1c0,0.5-0.1,1-0.1,1.5c0,1.1,0,2.2,0,3.3c0,0.6-0.2,0.6-0.7,0.6
			c-0.2,0-0.5,0-0.7,0c-0.3,0-0.4-0.2-0.4-0.4C113.4,105.9,113.4,104,113.4,102.1z M115.1,99.2c0,0.4,0,0.8,0,1.1
			c0,1.4,0,1.5,1.5,1.4c1.1-0.1,2.3-0.3,2.8-1.7c0.3-0.8,0.2-1.9-0.5-2.4c-0.9-0.6-1.9-0.9-2.9-0.8c-0.5,0.1-0.8,0.4-0.8,1
			C115.1,98.3,115.1,98.7,115.1,99.2z"/>
		<path class="st10" d="M79.9,101.8c0,2,0,4,0,5.9c0,0.4-0.1,0.6-0.5,0.6c-0.9,0-0.9,0-1.2-0.9c-0.1-0.3-0.2-0.2-0.3,0
			c-0.6,0.8-1.5,1.2-2.5,1.2c-1.4,0.1-2.4-0.6-3.1-1.6c-1.5-2.3-1.2-5.5,1.1-7.3c0.2-0.2,0.6-0.1,0.7-0.2c0.6-0.5,1.3-0.2,1.9-0.2
			c0.7-0.1,1.2,0.2,1.7,0.7C77.7,100,78,100,78,100c0.1-0.1,0.2-0.3,0.2-0.5c0-1.3,0-2.6,0-4c0-0.3,0.1-0.4,0.4-0.4
			c1.3-0.1,1.3-0.1,1.3,1.2C79.9,98.2,79.9,100,79.9,101.8z M78.2,103.8c0-0.4,0.1-0.8,0-1.1c-0.3-0.8-0.5-1.8-1.5-2
			c-0.5-0.1-1.1-0.1-1.7-0.1c-0.3,0-0.5,0.1-0.7,0.3c-1.3,1.3-1.6,2.8-1,4.5c0.4,1.2,1.1,1.8,2.2,1.8c1.2,0,1.8-0.6,2.4-1.8
			C78.2,104.8,78.1,104.3,78.2,103.8z"/>
		<path class="st10" d="M110.9,108.3c-0.8,0-0.8,0-1.1-0.9c-0.3-0.8-0.6-1.6-1-2.4c-0.2-0.4-0.3-0.6-0.9-0.6c-1,0.1-2,0-3,0
			c-0.5,0-0.7,0.2-0.9,0.7c-0.3,0.8-0.6,1.7-0.8,2.5c-0.3,0.8-0.3,0.8-1,0.8c-0.2,0-0.5,0-0.7,0c-0.2,0-0.3,0-0.2-0.3
			c0.8-2.3,1.5-4.6,2.3-6.8c0.5-1.5,1-3,1.5-4.5c0.3-0.9,0.3-0.9,1.2-0.9c0.2,0,0.5,0,0.7,0c0.4,0,0.5,0.2,0.7,0.6
			c0.8,2.6,1.7,5.2,2.6,7.7c0.4,1.2,0.8,2.4,1.3,3.6c0.2,0.6,0.2,0.6-0.4,0.6C111.1,108.3,111,108.3,110.9,108.3z M106.4,103.2
			C106.4,103.2,106.4,103.2,106.4,103.2c0.5,0,1,0,1.6-0.1c0.2,0,0.4,0,0.2-0.3c-0.2-0.3-0.2-0.6-0.3-0.9c-0.4-1.4-1.1-2.8-1.3-4.3
			c0-0.1-0.1-0.2-0.1-0.2c-0.1,0.1-0.1,0.1-0.2,0.2c-0.4,1.3-0.8,2.5-1.1,3.8c-0.2,0.5-0.4,1.1-0.5,1.6
			C105.2,103.1,105.8,103.1,106.4,103.2z"/>
		<path class="st13" d="M123.4,102c0-1.9,0-3.9,0-5.8c0-0.3,0-0.4,0.4-0.4c2,0,4.1,0,6.1,0c0.1,0,0.3,0.2,0.3,0.3
			c0.1,0.2,0,0.5,0,0.7c0,0.3-0.1,0.4-0.4,0.4c-1.4,0-2.8,0-4.3,0c-0.4,0-0.5,0.1-0.5,0.5c0,1.1,0,2.3,0,3.4c1.1,0,2.2,0.1,3.4,0.1
			c0.1,0,0.3,0,0.4,0c1.1,0,1.1,0,1,1.1c0,0.3-0.2,0.4-0.4,0.4c-1.3,0-2.6,0-3.8,0c-0.4,0-0.6,0.1-0.6,0.5c0,1.1,0,2.2,0,3.3
			c0,0.4,0.1,0.5,0.5,0.5c1.5,0,3,0,4.5,0c0.3,0,0.4,0.1,0.4,0.4c0,0.2,0,0.5,0,0.7c0,0.1-0.2,0.3-0.3,0.3c-2.1,0-4.3,0-6.4,0
			c-0.3,0-0.4-0.2-0.4-0.4C123.4,105.9,123.4,104,123.4,102z"/>
		<path class="st10" d="M90.7,101.8c-0.3-1.5,0.7-2.9,1.5-4.3c0.3-0.5,2.4-1.7,3.1-1.8c0.7-0.1,1.3-0.3,2-0.3c0.7,0,1.4,0.2,2.1,0.3
			c0.6,0.2,0.9,0.8,0.5,1.3c-0.1,0.2-0.5,0.3-0.5,0.3c-0.5-0.6-1.3,0.1-1.8-0.5c-0.1-0.1-0.4,0.1-0.6,0.1c-0.2,0-0.3,0.1-0.5,0.1
			c-1.8,0.2-2.6,0.7-3.5,2.4c-0.6,1.3-0.6,2.2-0.4,3.6c0.2,1,0.5,1.9,1.2,2.6c0.6,0.5,1.3,0.8,2,1c0.6,0.1,1.3,0.5,1.9,0.2
			c0.6-0.3,1.2,0,1.7-0.3c0.4-0.3,0.5,0,0.6,0.2c0.3,0.5,0,1.1-0.6,1.2c-1.9,0.5-3.8,0.7-5.6-0.4c-1.9-1.1-3.1-2.8-3.1-5.1
			C90.7,102.5,90.7,102.3,90.7,101.8z"/>
		<path class="st13" d="M91.5,69.4c0.8-0.4,1.6-0.2,2.4-0.6c0.2-0.1,0.5,0,0.4,0.3c0,0.5,0,0.9,0,1.4c0,1.8,0,3.7,0,5.5
			c0,0.9-0.2,1.8-0.3,2.7c-0.1,0.9,0.1,1.8-0.1,2.7c-0.2,0.9-0.1,1.8-0.3,2.6c-0.2,0.8-0.4,1.6-0.5,2.5c0,0.1-0.1,0.2-0.1,0.2
			c0-0.1-0.1-0.1-0.1-0.2c-0.1-1.3-0.6-2.6-0.6-4c0-0.6-0.4-1.1-0.3-1.7c0.1-0.6,0.2-1.2-0.3-1.7c0-0.1,0-0.2,0-0.3
			c-0.1-1.6-0.2-3.1-0.3-4.7C91.5,72.5,91.5,70.9,91.5,69.4z"/>
		<path class="st13" d="M84.1,68.8c0.8,0.1,1.6,0.1,2.4,0.3c0.3,0.1,0.5,0.3,0.5,0.7c0,0.6,0,1.2,0,1.8c0,1.3,0,2.5,0,3.8
			c0,0.9-0.2,1.8-0.3,2.7c0,0.9,0.2,1.8-0.1,2.7c-0.3,1-0.1,1.9-0.3,2.9c-0.2,1-0.3,2-0.5,3c0,0.1-0.1,0.2-0.1,0.2
			c0-0.1-0.1-0.1-0.1-0.2c-0.1-0.6-0.2-1.1-0.3-1.7c-0.1-0.5-0.2-1.1-0.3-1.6c-0.1-0.5,0.1-1.1-0.3-1.6c0,0,0-0.1,0-0.1
			c0.2-1.7-0.4-3.3-0.3-5C84.6,74.1,83.9,71.5,84.1,68.8z"/>
		<path class="st10" d="M63.7,105.1c0,0.9,0,1.8,0,2.7c0,0.5-0.2,0.5-0.6,0.5c-0.5,0-0.8-0.1-1-0.6c-0.1-0.2-0.3-0.3-0.5,0
			c-1,1.1-2.3,1.1-3.6,0.6c-0.7-0.2-1.1-0.8-1.3-1.5c-0.2-0.9-0.2-1.9,0.5-2.7c0.9-1,2.1-1.3,3.4-1.5c0.2,0,0.4,0,0.6,0
			c1.1,0.1,0.9-0.2,0.6-1c-0.6-1.3-1.3-1.6-2.6-1.1c-0.3,0.1-0.7,0-1,0.3c-0.1,0.1-0.6,0.2-0.7-0.4c-0.1-0.6-0.2-0.5,0.2-0.8
			c1.2-0.7,2.6-0.4,3.9-0.5c0.6,0.4,1.3,0.7,1.6,1.4c0.3,0.7,0.6,1.4,0.6,2.2C63.7,103.5,63.7,104.3,63.7,105.1z M62,105
			c0-0.4,0-0.7,0-1c0-0.1-0.1-0.3-0.2-0.3c-1.2-0.1-2.3,0.2-3.1,1c-0.5,0.4-0.5,1.6,0,2c0.2,0.2,0.4,0.4,0.7,0.4
			c0.5,0,1.2,0.2,1.5-0.1C61.4,106.5,62.3,106,62,105z"/>
		<path class="st14" d="M52.9,100.7c0-1.5,0-3,0-4.5c0-0.3,0.1-0.4,0.4-0.4c0,0,0.1,0,0.1,0c1.5-0.1,1.5-0.1,1.5,1.4c0,2,0,4,0,5.9
			c0,1,0,1.9-0.3,2.8c-0.3,0.8-0.6,1.8-1.6,2.1c-1.1,0.4-2.2,0.7-3.4,0.1c-0.3-0.1-0.5-0.7-0.3-1c0.1-0.2,0.3-0.5,0.8-0.3
			c1,0.4,2.3-0.1,2.8-1c0.1-0.2,0.1-0.4,0.1-0.7C52.9,103.7,52.9,102.2,52.9,100.7z"/>
		<path class="st13" d="M66.2,104.2c0-1.1,0-2.2,0-3.3c0-0.3,0-0.6-0.1-0.8c-0.1-0.6-0.1-0.8,0.3-0.9c0.6-0.2,1.1,0.1,1.2,0.6
			c0,0.2,0,0.4,0,0.6c0,0.1,0.1,0.2,0.1,0.2c0.1-0.1,0.1-0.1,0.2-0.2c0.2-0.3,0.4-0.7,0.7-0.9c0.5-0.4,1.2-0.3,1.9-0.3
			c0.1,0,0.2,0.2,0.2,0.3c0,0.2,0,0.4,0,0.6c0,0.4,0,0.6-0.5,0.6c-0.7-0.1-1.3,0.3-1.7,0.7c-0.4,0.4-0.7,1.1-0.7,1.8
			c0.1,1.6,0,3.1,0,4.7c0,0.4-0.1,0.5-0.5,0.5c-0.3,0-0.6,0-0.8,0c-0.3,0-0.4-0.1-0.4-0.4C66.2,106.6,66.2,105.4,66.2,104.2z"/>
		<path class="st10" d="M84.1,103.8c0,1.3,0,2.6,0,4c0,0.5-0.2,0.6-0.6,0.5c-0.1,0-0.2,0-0.3,0c-0.8,0-0.8,0-0.9-0.8
			c0-2.5,0-5.1,0-7.6c0-0.6,0-0.6,0.7-0.6c0,0,0.1,0,0.1,0c0.8,0,0.8,0,0.9,0.8C84.1,101.2,84.1,102.5,84.1,103.8z"/>
		<path class="st15" d="M83,97.8c-0.5,0-0.9-0.5-0.9-1.1c0-0.4,0.6-0.9,1.2-0.9c0.5,0,1.2,0.6,1.1,1.1c0,0.2-0.2,0.4-0.4,0.5
			C83.7,97.8,83.7,97.8,83,97.8z"/>
		<path class="st16" d="M61.4,40.4c-0.3-0.1-0.6-0.2-0.8-0.4c-0.2-0.1-0.3-0.3-0.5-0.4c0.3,0,0.6,0,0.7,0.1c0.2,0.3,0.8-0.2,0.9,0.4
			C61.6,40.2,61.5,40.3,61.4,40.4z"/>
		<path class="st4" d="M116.8,67.7c0.1-0.1,0.2-0.2,0.3-0.3C117,67.5,116.9,67.6,116.8,67.7z"/>
		<path class="st10" d="M72.5,65.7c0.1,0.1,0.2,0.2,0.3,0.3C72.7,65.9,72.6,65.8,72.5,65.7z"/>
		<path class="st7" d="M78.2,53.7c0.1,0.1,0.2,0.2,0.3,0.3C78.4,53.9,78.3,53.8,78.2,53.7z"/>
		<path class="st12" d="M43.8,42.7c-0.1-0.1-0.2-0.2-0.3-0.3C43.6,42.5,43.7,42.6,43.8,42.7z"/>
		<path class="st3" d="M67.1,35.9c-0.1-0.1-0.2-0.2-0.3-0.3C66.9,35.7,67,35.8,67.1,35.9z"/>
		<path class="st17" d="M115.1,99.2c0-0.4,0-0.8,0-1.3c0-0.5,0.3-0.9,0.8-1c1.1-0.1,2.1,0.2,2.9,0.8c0.7,0.5,0.9,1.5,0.5,2.4
			c-0.5,1.3-1.6,1.6-2.8,1.7c-1.5,0.1-1.5,0-1.5-1.4C115.1,99.9,115.1,99.5,115.1,99.2z"/>
		<path class="st17" d="M78.2,103.8c-0.1,0.4,0,0.9-0.2,1.5c-0.6,1.2-1.2,1.8-2.4,1.8c-1.1,0-1.8-0.6-2.2-1.8
			c-0.6-1.7-0.3-3.2,1-4.5c0.2-0.2,0.4-0.3,0.7-0.3c0.6,0,1.1,0,1.7,0.1c1,0.3,1.2,1.2,1.5,2C78.3,103,78.2,103.4,78.2,103.8z"/>
		<path class="st18" d="M106.4,103.2c-0.6-0.1-1.2-0.1-1.8-0.2c0.2-0.5,0.4-1.1,0.5-1.6c0.4-1.3,0.8-2.5,1.1-3.8
			c0-0.1,0.1-0.1,0.2-0.2c0,0.1,0.1,0.1,0.1,0.2c0.2,1.5,0.9,2.8,1.3,4.3c0.1,0.3,0.2,0.6,0.3,0.9c0.2,0.3,0,0.3-0.2,0.3
			C107.5,103.2,107,103.1,106.4,103.2C106.4,103.2,106.4,103.2,106.4,103.2z"/>
		<path class="st17" d="M62,105c0.3,1-0.6,1.5-1.2,2c-0.3,0.3-1,0.1-1.5,0.1c-0.2,0-0.5-0.2-0.7-0.4c-0.4-0.4-0.4-1.6,0-2
			c0.9-0.8,2-1,3.1-1c0.1,0,0.2,0.2,0.2,0.3C62,104.3,62,104.6,62,105z"/>
	</g>
</g>
</svg>
