<?xml version="1.0" encoding="utf-8"?>
<!-- Generator: Adobe Illustrator 24.1.0, SVG Export Plug-In . SVG Version: 6.00 Build 0)  -->
<svg version="1.1" id="Calque_1" xmlns="http://www.w3.org/2000/svg" xmlns:xlink="http://www.w3.org/1999/xlink" x="0px" y="0px"
	 viewBox="0 0 190 128" style="enable-background:new 0 0 190 128;" xml:space="preserve">
<style type="text/css">
	.st0{fill:#C0E17E;}
</style>
<path class="st0" d="M98.4,31.4c22.5,0,40.7,18.3,40.6,40.8c-0.1,22.6-18.5,40.5-40.7,40.5c-22.3,0-40.5-18.2-40.5-40.6
	C57.8,49.8,75.8,31.4,98.4,31.4z M98.4,33.7C77,33.7,60.1,51.2,60.1,72c0,21.1,17.2,38.4,38.4,38.4c20.9,0,38.3-17,38.3-38.4
	C136.7,50.8,119.5,33.7,98.4,33.7z"/>
<path class="st0" d="M98.3,91.8c-6.3,0-12.6,0-18.9,0c-0.7,0-1.3,0-1.9-0.2c-2.5-0.7-4.2-2.9-4.4-5.3c0-0.3,0-0.6,0-0.9
	c0-9,0-18,0-26.9c0-0.9,0.1-1.8,0.5-2.6c1.1-2.4,2.9-3.6,5.5-3.7c0.1,0,0.3,0,0.4,0c12.7,0,25.3,0,38,0c0.5,0,1,0,1.5,0.1
	c2.8,0.6,4.7,3.2,4.7,5.9c0,8.8,0,17.6,0,26.4c0,0.4,0,0.9,0,1.3c0,2.8-2.1,5.3-4.9,5.8c-0.3,0.1-0.6,0.1-0.9,0.1
	c-0.3,0-0.5,0-0.8,0C110.9,91.8,104.6,91.8,98.3,91.8z M119.1,54.8c-0.1,0-0.2-0.1-0.3-0.1c-0.5-0.2-0.9-0.2-1.4-0.2
	c-12.7,0-25.4,0-38.1,0c-0.1,0-0.2,0-0.4,0c-0.5,0-0.9,0.1-1.4,0.3c0.1,0.1,0.2,0.2,0.3,0.3c0.7,0.7,1.4,1.4,2.1,2.2
	c4.9,5,9.8,9.9,14.7,14.9c0.6,0.6,1.2,1.3,1.9,1.9c1,1,2.5,1,3.6,0c0.1-0.1,0.1-0.1,0.2-0.2c4.7-4.8,9.5-9.6,14.2-14.3
	c1.4-1.4,2.8-2.9,4.3-4.3C118.9,55.1,119.1,55,119.1,54.8z M119.1,89.2c-0.1-0.2-0.2-0.3-0.4-0.4c-1.5-1.5-2.9-2.9-4.4-4.4
	c-3.4-3.5-6.9-6.9-10.3-10.4c-0.1-0.1-0.2-0.2-0.3-0.3c-0.2,0.2-0.4,0.4-0.6,0.6c-0.5,0.5-0.9,1-1.4,1.4c-1.9,1.8-4.8,1.8-6.7,0
	c-0.1-0.1-0.3-0.3-0.4-0.4c-0.5-0.5-1-1-1.5-1.5c-0.1-0.1-0.2-0.1-0.3-0.2C87.7,78.7,82.6,83.9,77.6,89c0,0,0,0.1-0.1,0.2
	c0.1,0,0.2,0.1,0.2,0.1c0.5,0.2,0.9,0.2,1.4,0.2c12.7,0,25.5,0,38.2,0c0.2,0,0.4,0,0.6,0C118.4,89.5,118.8,89.4,119.1,89.2z
	 M120.9,56.4c-0.1,0-0.1,0-0.2,0.1c-5.1,5.2-10.2,10.3-15.3,15.5c0.2,0.3,0.4,0.5,0.6,0.7c3.8,3.8,7.5,7.6,11.3,11.4
	c1.1,1.1,2.2,2.2,3.3,3.3c0.1,0.1,0.2,0.2,0.3,0.2c0-0.1,0.1-0.2,0.1-0.3c0.2-0.5,0.3-1.1,0.3-1.7c0-9.1,0-18.1,0-27.2
	c0-0.1,0-0.2,0-0.4c0-0.5-0.1-1-0.4-1.4C121,56.6,121,56.5,120.9,56.4z M75.8,56.4c-0.1,0.1-0.2,0.3-0.3,0.5
	c-0.2,0.5-0.2,1.1-0.2,1.6c0,9,0,17.9,0,26.9c0,0.3,0,0.6,0.1,0.9c0.1,0.4,0.2,0.9,0.5,1.3c0.2-0.1,0.4-0.3,0.5-0.5
	c1.8-1.8,3.7-3.7,5.5-5.6c3.1-3.1,6.1-6.2,9.2-9.3c0.1-0.1,0.2-0.2,0.3-0.3c-5.1-5.2-10.2-10.3-15.3-15.5
	C75.9,56.4,75.9,56.4,75.8,56.4z"/>
</svg>
