<?xml version="1.0" encoding="utf-8"?>
<!-- Generator: Adobe Illustrator 24.1.0, SVG Export Plug-In . SVG Version: 6.00 Build 0)  -->
<svg version="1.1" id="Calque_1" xmlns="http://www.w3.org/2000/svg" xmlns:xlink="http://www.w3.org/1999/xlink" x="0px" y="0px"
	 viewBox="0 0 122 105" style="enable-background:new 0 0 122 105;" xml:space="preserve">
<style type="text/css">
	.st0{fill:#4D5051;}
	.st1{fill:#C0E17E;}
	.st2{fill:#36393B;}
	.st3{fill:#8B8F91;}
</style>
<path class="st0" d="M54.4,23.6c0.3-0.6,0.7-1.2,1.2-2.2c2.8,7,5.5,13.6,8.4,20.7c2.9-7.1,5.5-13.7,8.2-20.4
	c2.1,1.9,2.3,4.2,2.2,6.5c-0.3,6.9-2.7,13.1-7.2,18.5c-1.4-0.5-2.8-1-4.3-1.5c0.7-1.9,0-3.5-0.9-5.1c-0.6-1-0.9-2.1-1.4-3.1
	C58.6,32.5,56.5,28.1,54.4,23.6z"/>
<path class="st1" d="M68.2,52.8c0.5,0.2,1.2,0.2,1.4,0.5c3.6,5.8,7.1,11.7,10.6,17.5c0.9,1.5,1.4,3-0.3,4.2c-1.4,1-2.9,0.4-4.1-1.6
	c-1.6-2.5-2.7-5.6-4.7-7.6c-3-2.9-3.3-7-5.9-10c-0.2-0.2,0.2-0.9,0.3-1.4C66.3,54,67.2,53.4,68.2,52.8z"/>
<path class="st1" d="M62.5,54.6c0.1,0.5,0.4,1,0.2,1.4c-1.2,2.7-2.3,5.4-3.7,8c-0.5,0.9-1.8,1.3-2.4,2.2c-1.6,2.4-3.1,4.9-4.6,7.4
	c-0.9,1.6-2.1,2.6-3.9,1.5c-1.8-1.1-1.4-2.6-0.5-4.2c3.5-5.8,7-11.7,10.6-17.5c0.2-0.4,1-0.4,1.5-0.6C60.7,53.4,61.6,54,62.5,54.6z"
	/>
<path class="st2" d="M54.4,23.6c2.1,4.5,4.2,8.9,6.3,13.4c0.5,1,0.9,2.1,1.4,3.1c0.9,1.6,1.6,3.3,0.9,5.1c-0.8,0.5-1.6,1-2.4,1.4
	c-4.5-5.5-7-11.7-7-18.9C53.6,26.4,54.1,25,54.4,23.6z"/>
<path class="st3" d="M60.7,46.7c0.8-0.5,1.6-1,2.4-1.4c1.4,0.5,2.8,1,4.3,1.5c-0.1,1.5-0.1,3-0.2,4.5c-0.9,0.6-1.8,1.2-2.7,1.8
	c-0.6,0.5-1.3,1-1.9,1.5c-0.9-0.6-1.8-1.1-2.8-1.7c0.2-1.1,0.3-2.2,0.5-3.3C60.4,48.6,60.5,47.6,60.7,46.7z"/>
<path class="st0" d="M62.9,65.6c0.2-1.8,0.3-3.4,0.5-4.9c0.3,0,0.6,0,0.9,0c0.2,1.4,0.3,2.8,0.5,4.6C64.3,65.4,63.8,65.5,62.9,65.6z
	"/>
<path class="st0" d="M65.9,65.3c-0.1-1.7-0.2-3.2-0.3-4.8C67.9,63.4,67.9,65.1,65.9,65.3z"/>
<path class="st0" d="M61.9,60.5c0.1,0.2,0.3,0.4,0.3,0.6c-0.1,1.4-0.2,2.7-0.3,4.4c-0.6-0.1-1.5-0.3-1.5-0.3
	c0.2-1.6,0.5-3.1,0.8-4.7C61.4,60.4,61.7,60.5,61.9,60.5z"/>
<path class="st0" d="M64.4,53c0.9-0.6,1.8-1.2,2.7-1.8c0.3,0.5,0.7,1.1,1,1.6c-0.9,0.6-1.9,1.2-2.8,1.7C65.1,54.1,64.7,53.6,64.4,53
	z"/>
</svg>
